<mxfile host="65bd71144e">
    <diagram id="SeLDUtfU9aCj3UhJUlpp" name="Page-1">
        <mxGraphModel dx="1487" dy="794" grid="1" gridSize="10" guides="1" tooltips="1" connect="1" arrows="1" fold="1" page="1" pageScale="1" pageWidth="2500" pageHeight="1500" background="#CCCCCC" math="0" shadow="0">
            <root>
                <mxCell id="0"/>
                <mxCell id="1" parent="0"/>
                <mxCell id="2" value="Span A" style="rounded=0;whiteSpace=wrap;html=1;fillColor=#85C7DE;strokeColor=#4D4D4D;fontColor=#4D4D4D;" parent="1" vertex="1">
                    <mxGeometry x="440" y="240" width="600" height="40" as="geometry"/>
                </mxCell>
                <mxCell id="3" value="Span B" style="rounded=0;whiteSpace=wrap;html=1;fillColor=#A0C4E2;strokeColor=#4D4D4D;fontColor=#4D4D4D;" parent="1" vertex="1">
                    <mxGeometry x="450" y="320" width="230" height="40" as="geometry"/>
                </mxCell>
                <mxCell id="4" value="Span C" style="rounded=0;whiteSpace=wrap;html=1;fillColor=#AED1E6;strokeColor=#4D4D4D;fontColor=#4D4D4D;" parent="1" vertex="1">
                    <mxGeometry x="690" y="320" width="340" height="40" as="geometry"/>
                </mxCell>
                <mxCell id="5" value="Span D" style="rounded=0;whiteSpace=wrap;html=1;fillColor=#C6DBF0;strokeColor=#4D4D4D;fontColor=#4D4D4D;" parent="1" vertex="1">
                    <mxGeometry x="690" y="400" width="200" height="40" as="geometry"/>
                </mxCell>
                <mxCell id="6" value="Span E" style="rounded=0;whiteSpace=wrap;html=1;fillColor=#CFE8EF;strokeColor=#4D4D4D;fontColor=#4D4D4D;" parent="1" vertex="1">
                    <mxGeometry x="900" y="400" width="120" height="40" as="geometry"/>
                </mxCell>
                <mxCell id="7" value="" style="endArrow=classic;html=1;fontColor=#FFFFFF;strokeWidth=2;strokeColor=#666666;fillColor=#f5f5f5;" parent="1" edge="1">
                    <mxGeometry width="50" height="50" relative="1" as="geometry">
                        <mxPoint x="430" y="220" as="sourcePoint"/>
                        <mxPoint x="1040" y="220" as="targetPoint"/>
                    </mxGeometry>
                </mxCell>
                <mxCell id="8" value="Time" style="edgeLabel;html=1;align=center;verticalAlign=middle;resizable=0;points=[];fontColor=#666666;fontSize=20;labelBackgroundColor=none;" parent="7" vertex="1" connectable="0">
                    <mxGeometry x="0.0122" y="4" relative="1" as="geometry">
                        <mxPoint x="7" y="-16" as="offset"/>
                    </mxGeometry>
                </mxCell>
                <mxCell id="10" value="" style="endArrow=classic;html=1;fontColor=#FFFFFF;strokeWidth=2;fillColor=#f5f5f5;strokeColor=#666666;" parent="1" edge="1">
                    <mxGeometry width="50" height="50" relative="1" as="geometry">
                        <mxPoint x="430" y="220" as="sourcePoint"/>
                        <mxPoint x="430" y="440" as="targetPoint"/>
                    </mxGeometry>
                </mxCell>
                <mxCell id="11" value="Span&lt;br&gt;Hierarchy" style="edgeLabel;html=1;align=left;verticalAlign=middle;resizable=0;points=[];fontColor=#666666;fontSize=20;labelBackgroundColor=none;" parent="10" vertex="1" connectable="0">
                    <mxGeometry x="0.0122" y="4" relative="1" as="geometry">
                        <mxPoint x="-104" y="-2" as="offset"/>
                    </mxGeometry>
                </mxCell>
            </root>
        </mxGraphModel>
    </diagram>
</mxfile>